<mxfile host="app.diagrams.net" modified="2021-07-27T12:50:12.422Z" agent="5.0 (Windows NT 10.0; Win64; x64) AppleWebKit/537.36 (KHTML, like Gecko) Chrome/91.0.4472.164 Safari/537.36" etag="Y6McvBP93oMy9rzd91o2" version="14.9.2" type="github">
  <diagram id="PCLvT5JROunnw590PySe" name="第 1 页">
    <mxGraphModel dx="1550" dy="835" grid="0" gridSize="10" guides="1" tooltips="1" connect="1" arrows="1" fold="1" page="1" pageScale="1" pageWidth="827" pageHeight="1169" math="0" shadow="0">
      <root>
        <mxCell id="0" />
        <mxCell id="1" parent="0" />
        <mxCell id="TQgNsXMmvH57evhabwCa-1" value="" style="shape=image;verticalLabelPosition=bottom;labelBackgroundColor=#ffffff;verticalAlign=top;aspect=fixed;imageAspect=0;image=data:image/png,iVBORw0KGgoAAAANSUhEUgAAAqsAAACICAYAAADAvKJAAAAgAElEQVR4Ae2dP2/jOtaH38/je2dnZ6tFygApfNtbuEkxwMDdIICLwd1mkE2dOimmSzdbpBog+wnmNne/k14c0sc6oklKlG2Ztp/CkCyJ/w4fiT8ekdT//fLLLw0/bAADMAADMAADMAADMFAjA/9XY6bIEzcLDMAADMAADMAADMCAMIBYxbOMZx0GYAAGYAAGYAAGqmUAsQqc1cJJj5oeNQzAAAzAAAzAAGIVsYpYhQEYgAEYgAEYgIFqGUCsAme1cNKbpjcNAzAAAzAAAzCAWEWsIlZhAAZgAAZgAAZgoFoGEKvAWS2c9KbpTcMADMAADMAADCBWEauIVRiAARiAARiAARiolgHEKnBWCye9aXrTMAADMAADMAADiFXEKmIVBmAABmAABmAABqplALEKnNXCSW+a3jQMwAAMwAAMwABiFbGKWIUBGIABGIABGICBahlArAJntXDSm6Y3DQMwAAMwAAMwgFhFrCJWYQAGYAAGYAAGYKBaBhCrwFktnPSm6U3DAAzAAAzAAAwgVhGriFUYgAEYgAEYgAEYqJYBxCpwVgsnvWl60zAAAzAAAzAAA4hVxCpiFQZgAAZgAAZgAAaqZQCxCpzVwklvmt40DMAADMAADMDAxYvV+WLZLOZXHcE2X6yaZXBsnzfLbDZvlqvtdPeZRiqu2dWiWa0WzdVs1ilzeL3kcbGc914n4WZziXPZzK/ycYZpnMP/2eyquZqLrVbN/QC7xsp8tZCw+2eOOuQBH+ONY3ABAzBwagxULVadqFv2Cytr9NIw8+V9c3/fFVqbYz2Czqab2hcxs1jdN6tFK/z8sWUzHxH/1WLZLJfjf6v7++bf//53r7Byovb+vrkXEWry6cRZIEr1Wivwr+aLasXrfFkmDGdXV83V1VUzn8+b+WLh7L9arZwdZSu/TZ0suh2fFBf2uBe8y2a18vZeBPa115bsa72cYx2W2IFraZhhAAZg4LQZqFqsisdpOS/z1pWGccI08Ii5Y8t51vM4FPxWMHTFW2k+bXpXGTEzmy+b+/tVs6vgcd6+RDxybmW8rr6MbZoq0KUTsGs+pNwifDdicAeh7uJYebEugt2K6459RZTGfiJanX27At6G3XU/Z/fSuHNxTV2HpXnn+tNuWKg/6g8GYGCfDFQrVp2HNBCRfQUfE+bQYjXlpXWisrB8Wv6Yd3NzLiNW58vh4jEU7LOr+Wa4xEaMrvO/JVZV0GVEteZ36DYn0PviCPPXd33uvO8M5MWq99yWdbJsmk5k7qGzVFsd2jKyT0MGAzAAAzAwlIFqxao02If2qoqRSsSqiLS5eZ3fZ2T1qq4ir4ZV8JWWUdNMvcpOeVadkJfX+glvqcYrW71WxqGqR1OHD2h+JR3vnZw1Vgz6crVeVhvvsfZt/nJ5GOTBXa2cDVcpD+96eIDYWW2VSzN2LucRjV0fO3ZudRgrI8do6GAABmDgMhioUqyO8ZCmwniB2YouFV+69eMEu+NivYA14xBVmKxfId8P9HrFhLC9sZwoGe1dnTfLexkL2x0jmRKrJQLIxdGTLy+GvCi1YtCNqS0cumFtcoh9m79d4/f2zXtWd01DuJGOQFi3JfGeWx2WlJ1rL6Pxop6pZxi4HAaqFKuH8KqmXiPHBKU7NlCQpm6WIQJp4/0KBGcqzvC42CkUNTGxqukM9fRJ+XPXypAAO/M/VlaZId+34kBYniH/pfORitedi6ziEMvfkLRi1+TE6lUk7VgcuWPeMz1sElwunprrMJdvzl1O40NdU9cwAANDGahOrKY8pLkCjQmj8R1CrKrgGOIZE/Gjr9M1T0O3XoTJDPLWMxwTqyJqh+RF0nVxmvg0LyI+dVUATUO908vlWjSrB3q5bGTYgORLw2g8u26307ZecxXv3clxY8Sq80SbYRCbsiaHAagNdhPpWqdLWXVgwJCNmD1rr8NYnjlGowUDMAADMJBioDqxegivaqrwcvwQYtXFGfHMiqgO13Td5GGEMFFRbIclqJjTWfhOuETykrKJt4cVgLLvhZiKYp9G+lW45ivnnU2l33c8LJ+9PnVutFiVJc3Msl2SVqrsY9Kwedd9J5LX6UpdDO1kaHjZ1l6HNq/s0zjBAAzAAAz0MVCVWB3jIR0TxhrFN+ytZ1LOuWMRgSdpzXvGY3qPXDc+TU/Oudf2ZtknOafizk/K6Y5B1bCprVsD1AgqK9gkXpkQFob16W1PALLC1tn1Pj4cIBRsbliAeQWu5TmIWJWPGiSEvS27LfMYIWlFYycuXenA2FzOj0nDxuviWK/Jq52PHEthWP1/CnWoeWVLAwUDMAADMDCEgarEqjTOpQJnSBgv2kJvof9fMsHKXZsQSmJsEUupr0OpgEutPariUMSsW8TdLPuUy//m9bS+gtfF6vV/bNtZa9QvseTyZz7AoPmJ1ce2WBUB2Q5H0LLGwg6BMndNThTuX6zKerIBN5lhAENWWsiWLVh2zJc13mGIxXMqdRjLO8dosGAABmAABlIMVCNWnTiKjJVMZVyOl4SRhjw2MafEs5rLiywWbxfKD68VIdU3NtWXxy8vtVp2PyKQyn8snV1F08a2xrPqvadrYRt4F0NRdT5idbphAGozHWqh9RrjU8/1bcMORy112JdvztNgwQAMwAAMWAaqEatDPKQ247I/JkwYR0wMpIYBhGH1vwiNuXkNrsd1q6JBX+/q8djWxWW8qrFrcsdS3sVcGD3X/ZTrynlLda1V5zldrx0a96y2a6uq8Dp9z+qEYjXwqmqdDOnk6LWyPYU6tPllnwYJBmAABmCgj4EqxGqJh1QLNCaMhrXbfYhVG19s36URmawTu3bXY7uIVUlbl/hSgR0TnEPF6pjJQX3lP8dhACruY52ZzbkCfmqvw7465jwNFwzAAAzAgGWgCrE6xkM6JowtuO6XilURcYvIpCWNL9ymxONsvmh0xn4YZpf/qfRK4ywSq+GwgPVEocOJ1fvtsaQytnQ9njS0a07gpuwifIWv5OXaUKhreJfGatlZf1bP9W1dWhkxKmm6scyRSX+5uGutw1yeOUcDBQMwAAMwEDJwdLHqGtRDjlW9Wmw+Gbo1GUnWA121E4PUOF7ARr5gtb7ezegfsJB/TixIWqlPpmo+xmyPIVZDsaXewIOI1cTrcrFVquxjxGrK9imxmrq+77jPW/8kKmFyKHeaZo6/sBxT1qHmjy0NEgzAAAzAwBAGji5WpZGMvWrOZb40jCzvlIqv1LOaiid23MWd8YYdQtSlBFssf7ljodARG86XS+cNFq+wnUwWllPKNV90J4jl0io5lyuf5Gs5355IN5VYdfVpVlToK5faeIio12v9JL00zzZNDaP3Vy11aPPIPg0VDMAADMBAHwNHFauuMT2gV7Wv8HL+UGJVBLUIur48qGdtiGDpi0vO58TckPB6TSt0RKSu0ktyuXVPvWfwarGIfvRA49zH1gnSRdlXokrEqsyYX4TLVdn/yaWrZBjC8M+kbjoqAxhRuykrQz2stdahloctDRQMwAAMwMAQBo4qVks9pFKgMWFyhjiEWHVCtUCESx68x8wvDZXLb9+5vYnVtQh1wij4iIHmQcWQFdpuCa/VfSOrCMwzHm2NY4ptiViV/OQ88d6+26sElJTDeZ6lAzBgKEkYr6QvdSK/cD3erWvPqA7DsvGfBg4GYAAGLoeBo4nVGryqAnpSrBaITXvDiFD1QkK8keZ3v/a63bfHNmNoF8vOovo2vtL9vYnVtShKeYev5JW7iNKI4FIxthFUwdeeSstUev3GO7qQL46Jp3TV7GPtWcnHELHqvaZxMaq2idltaDmVMRWtsiZvbA1hFbanWIdDbcF1l9NYUdfUNQxcLgNHE6tjPKRjwvTBvW+xqq9qRUAs5vPm6upqsxxULi8uH5mvY+XC2nP7EqsS51Vk7VgvUmWIQ/+YVOdlvY8LWpvnQ+1r+l40xwWdpt1dnzT4atXQYQB6XeQLYZKOithwtQLNQ8nWe7CH1MH2+NZTqsMSm3Dt5TZk1D11DwPnzcBRxKrzqia8QSngxoRJxWWPz90Er26DPl+MW4LIxlu6LyIz5QEricvH0y9iSuIUcePGccqkqYiAzcXlluia7z68IZdG7pzrPAxcUkrXJ83FN/acE6qFzI9NKxbulOswVh6OnXfDRP1SvzAAA5aBo4hVmwH2ARIGYAAGYAAGYAAGYCDFAGL1F+BIwcFx2IABGIABGIABGDg2A4hVxGrv8lrHhpT0eVDCAAzAAAzAwOUygFhFrCJWYQAGYAAGYAAGYKBaBhCrwFktnPSiL7cXTd1T9zAAAzAAA8oAYhWxiliFARiAARiAARiAgWoZQKwCZ7Vwao+KLb1rGIABGIABGLhcBhCriFXEKgzAAAzAAAzAAAxUywBiFTirhZNe9OX2oql76h4GYAAGYEAZQKwiVhGrMAADMAADMAADMFAtA4hV4KwWTu1RsaV3DQMwAAMwAAOXywBiFbGKWIUBGIABGIABGICBahlArAJntXDSi77cXjR1T93DAAzAAAwoA4hVxCpiFQZgAAZgAAZgAAaqZQCxCpzVwqk9Krb0rmEABmAABmDgchlArCJWEaswAAMwAAMwAAMwEGXg+stz83A725zz/+eb/1N0IhCrwDkpcFNATRqX2/um7ql7GIABGNgfA9e3z83T46ctnbB4fO0I2EPbHLGKWN2C8NDQHSP+65t5c33zqXl4/Npcz9oe4jHyQpr7e5Beui3hGpYu/R6g/O09sO/nwez2ufn+Em8zZ7NPzcPLa3N3M017ehSxOrv52jy9/Wz+898/o7+nl+fm7nZaFzPAt8CPsYUDN6jTpy911KHw9vDieUvdeGPKTJjdmDkF+8H1+dfxoTiknTs/di7peeDLmhejTsy+PTeLCRxARxGr+nBYPP5svr90Czq7+dTcPb46EVuL2NH8su1/+Fx/eW2+TwRvaX143uK9xNK4uL6fhXOyEVxfVn3vk13aufNj5xKeB47byOv/8N6Q66bQahWI1bh4cIZ6y6v60Gg1/b/+8nWS3sZUZR5anku4iaeyeY3pDOWgxrzH8jS0PHB9foIjxsMhjnmxSjt3CNvuO06eB/4+928Fhumvqbyr1YpVMYAME7Az0PYN5iHjWzx2PcaHTGuKuIeWh0b9vBv1oRxMweQ+0hhaHrg+b673wVIqjpxYpZ2riyueB74+3PMuMVY15Hw2mzd3L4f3riJWDzDByo/1OB+xWlIeGvW6Hr7hg2WX/yUc7JLOVGFLygPX58v1oXk7V7Facv8c2sb7iL+kPOf8PBgjPnOM76NuJA7E6p7Fqhtz+/Kz2nGbpeCUluecb+JS253T9aUc1F720vJcMtd9E4XsRNnvA8a41c7GvvOXa8hP1bNaev/s26b7jq+0POf8PND7veSt9hRDAaoUq6rsUxN15Pziy3NnRYGnx6/NIrOEwtAwLu3H5+bh8XWztpgsgKurF3x/e20eIrPctYLtg9vuSzi7xEObzrNb/uHJnJe4NrPXJT2zGK/cpBLWrX22nuGu6cgqCqEN2nQOWx59eIy9iX0+Xzd2ljINrlNjB5mwZ+2s+ZJt2Gi4NE1YSTO0tQ3ft9/aurxOJW4JD9fPzVNQJ3D9p5uIeiyu+7jf1/nZ7Nfm4eP75tvHvzc/Pr5zS+r99vv75scfH5r//esfzV9//L359vuvyaX2JPzSXC9hfnz8W7P8Z7u0jkvjs4/PxfnxXTO7ee/i92m8b5azWfPb739vj33+W/PbDrOdw+eO2kufP7RzfzauXaWdi7K9aRfMc/GQ7ZwXnl29osymtqVh7H34I3NP2/SqE6ttD2dbpEnGNzf4SytOXWU+yiz0uIFLwsi117eyftjP5rsIYFn49sunzdqc17d+2a2cqBnSy9B0FrefXBqady9Cfdn8awlZMaEdnN+WpStM5fgiMhNf0zl0eRSqMWJVhb6I0+t1h8OVZ1Cddu0gHYuU6Iw1GmrPhz0slaa2Lq1TuLb3dbc+HQdw3RyTa723D72VBuy3m3fNt88fmr9EZH4UcfpuIxR/u/mbE67fIk4Jbfz++tyKUzkmcYjIfYgI1r/Wgtjdfzfvt6+TY+aaseWPPndk1Rv3Bo52jnZuiHbpPhcP+TwoFZ7+/unXRfb+0fvVdShPRayqV9Bucx612I2vRkidSx2XcKlz7nhC/LpzmdddQ8Sq5lm2Xqy9Nne3X5uHIF7xtNk1ZzfCLuPdjQnpqcpTKlZVLKZeH+brZ3tcsNonFl8YlxNC7isc+18PtqROcxzmzoXlsUylzrnjcO08GCX3KVxPN2Z1+fHDlnBUtt25iIB0xxMe0Ng58ZyKsFWP6Wz2rvn2x4fGCmG5xopczUPpVu45277pPu1cyxTtXNcppYz55/W07dwUYlXLV7KtyrPa1yBoDywmxqTQMSOPCSNxOUgC4aiGdeeMt1OP67akEZQwG4GViVPjlq14fsPX/S4e+aLE28/oq+ypytNXh7YcLs/yhYyEeEqVSe0VW9vNid/H+FAAW29eJItXY/9C1eV7/eEL6xUPy67/xzA6JoykNxUHpTaQ6+Haeydq5lqZPeQ2JUglzZjwjAlNmz95zb/lXf2neGlbMTpz/8Wj64cfeM+PHxJg4xqzb587Er7vGTnm3h4TRvLC86AVzCXtdl8dhpzEtIm9JlZ/x2rn+vJq8637Y8Jo2KHbqsRqrnKkQH0GkfPSa7VidkwYSWv6mzg+hCFXkfL50DsZT/vSHetpy6/hpypP6U0cPsg1v7qNeV776lTDhts2Lb/URk4kh2FL/3uWh9VpX3ng2n/pDq7bhtXyeGiu9bmsHsHcNvZGw+Z1yH6xWI2IUZuOjkm1XtNQ4IoX9cdnGTLgBaoTrxEPro136H5bP37srNoz1imROHkedDmnnWvHXA9hruVtXDunfMaet6n0PbPbHuDU9WOOVyVWpQDO0IkvIGmjnXtYxsRq3/VhmE0+JvWsDhM2kjc3rvVNXhv48bQL+e79bNbEemcKhbPrBOWpX6z6yU93Mi7Z2bAdD6y22se2VKyWMjrmXpByTcWBpFViA7kervNvGVJc+sZpGq5Tedjn8TFiVca+9f2sWJX82nRkbOuDGRMr4jW8fmwZff10nzPuGO1cdEKR2pnnwXGeB+ogSnWmtH7sNsa4Pb+P/erEqqr6mKH6epwxg4wJI/E4408g7iStkkZdRUrUPicyDGC2FtcbO2eGP+iNYz02O9WpGXKQs2WMpZJjpXVa6uXdyQZwfZAxq5fAdck9MPZaKyLDONw5M9ZUzsde84fhYv99OPGkyqQuGb/qx63++P1d8/C5HSIQC1tyLNaQ0851vaehPXPP5lNxypzy8yDGbFhH+l/b6Jgm0Wv2sa1PrK6/hhBbzkNv8CL39HrsYEkYMWyNYlWhSI2DPJWb2H4lxIuu9OsDLZO9EYZwIKtKhON6YzegeIJjnvVdb64isTqC0SE2iJUBrttGso89a78hbwwugWtrk0PtF4vV9XjTUk+oH6cqKw68b3T5HEnbLWEVCOJdyhp77mye5RHv6ph7e0wYKRPPA54HMbaL2q+eeSex+Mccq06sSiFyvarczeUeALLcVLAm3r7DxB4+1vipiraN2ZDr7TXOLirkE55IFXYizMUWugyUhM3ZYJ/l6WvUnW1M/jXPVozacsfi2zzoTTw2jJyP2TpWzk1ckUbDxlm6n2IgFU+uflwe4dqNRRdbwHV3DNuUXKf43efxUrEqaefCuMlSshRW0C7o8jl28pW8/i9ZTmdIuWP1I+Fo51qhaO24eSYnn+/tRGKeB9uOnhhvG5sWtHO5NsnW19DrbJgx+3WKVRVlYthgTT0nbmR9OrPOqhRcPGkPMoYzWFjYnZPX44VhchUQg8EavxVgdn3W5yYlyEqEjXoCn8zarwKiW0x+PdHKidXb544tpipPTFyqbTZjkILX0L78P91HGGTsra8zXTc2PpZXbRzj4C7BQarebFyavuZ57LakTn15yxkdcy9MxYErk/MYx+svtCtc+4bbsmiffX796fjzbUquw3o7xP+c8HTnIl5PN2FK1mc166w6Bv8pr/jT40/D+HRVgFIvbc4O6frRCTC0c6H9eB4c/3ngn0X553fJ2ylbx9pRLOkYHkWsqjixk0pCkamwyjWhyNuIs7d2/brcFx3cQ0sFXU8YbSw0b3Y4wva5dEVKGe1XqERcdivL9w41HbvtG7/oRF/naxbtEkzyEQOJS4cKbOe57YltnztMeWzZZD+sa1c/srLBOu8u/2/yxa32ww/WdrrvOJAvjYV1GixHlStn7pymM3QbxmXL3VenkgZcd79e5SYQrusSrrvrLXteus8Qy1jIoj03lOepr9MZ+jpRSmfm+7L68aTtue0xpdIAhl+w+uvz++xaqTJuVYcAbNL5vJ8lq2jn5JnWZbTkmUg7p4JV3hQep51zYnSAh7v0WXEyYrW0YFwff12CXbALDMAADMAADMDAoRgQx+FT8DZU0nJf9wwcQyV50M7p0LcYR/GslhSIa7kJYQAGYAAGYAAGYOA4DIhgtW9E5XOvu35Qp12NozsGP1XHiNVfjlP5qQrhOPUBAzAAAzAAAzBwzgzIeHE7BKevrIhVxGpnLG0fMJznAQoDMAADMAADMDAlA4hVxCpiFQZgAAZgAAZgAAaqZQCxCpzVwjllr4208BLAAAzAAAzAQJ0MIFYRq4hVGIABGIABGIABGKiWAcQqcFYLJz3cOnu41Av1AgMwAAMwMCUDiFXEKmIVBmAABmAABmAABqplALEKnNXCOWWvjbTwEsAADMAADMBAnQwgVhGriFUYgAEYgAEYgAEYqJYBxCpwVgsnPdw6e7jUC/UCAzAAAzAwJQOIVcQqYhUGYAAGYAAGYAAGqmUAsQqc1cI5Za+NtPASwAAMwAAMwECdDCBWEauIVRiAARiAARiAARiolgHEKnBWCyc93Dp7uNQL9QIDMAADMDAlA4hVxCpiFQZgAAZgAAZgAAaqZQCxCpzVwjllr4208BLAAAzAAAzAQJ0MIFYRq4hVGNiJgesvz83D7WwTh/8/3/zn4V/nw596oV5gAAZOhQHEKkIFUQEDoxm4vn1unh4/bYVfPL52BOypPBDJJ403DMAADNTHAGIVobIlNM7xRr2+mTfXN5+ah8evzfWs9QIeqqw+vXmzuP3aPLy8Nnc3h0+zryz7tsHs9rn5/hK352z2qZpy99mF8/U1TNQJdQIDMGAZQKwiVvciVp04efvZ/Oe/f25+T1/qeBU8uxHB6POWElf2pth136f32jy9vDZPbz+b72/HF6v7toGv73y5nJh9e24WE3QOdq0zwtMwwgAMwEC9DCBWEat7Eat6k19/eW2+VypQFo8/k55Azf++tyISnyoQq1qufdnAxRN5/a/p6Fauq6XTonliW2+DRN1QNzAAAzEGEKsHEqvXX76elUdpaHkQq90HzTmK1ZIy4V3t8hB7CHMMG8EADMBAngHE6oHE6uLxvF5/Di0PYrV7w5UIuykeVvvwrLo6ToxVDcswm82buxe8q6Fd+N+9T7AH9oABGMgxgFg9gFj14/nOR6yWlAex2n3gnJtYHSM+9yGQcw8xznWZwx7YAwZg4NwYQKzuWazObj45T1Kt4zZLAS4tD2K1+5A8O7HqxuD+LFqWiqEAXSZK70Gux34wAAOXzsBRxKrzzjw+Nw/yczOm21nF0rhvZm6/xddqlPCLL89uprXOPn96/NosMssDDQ3T5u11s36kLHIus7olLZnZ/RCZ5e5FSXc2vOZNw9nli9p0ym0gYd36lusZ7prO08vzlg3adA5bHr2RxopVn08/e35TnqF1auzw/eU5uUxU6OFzaZqwkq5d3F7LtMu2RKyegg288Gzv1yG2KQ0zm/3aPHz+0PzvX/9ofvz+614nAA7JL9cgDGAABmCgLgaOJlavbz81C/k9yuxx3/h5AeZFpy6FFC41pAJDjqs4lWM2nhCykjByreRNBPN3EUuyuPmXT5u1Oa9vZXZ33rM0xJOk6ZTaoC1LV5jK8UVkJr6mc+jyqM3HiFUV+tLhuF53OFx5DBsav25TdpCORUp0hmJV4tJ4Hm4Ps8zWULF6KjYoFZ7OxoXeWMRqXY2E3nNsqRcYgIFjMXAUsWoLu2nMZfH0YCkc8Z7eBSIiJjg0vtS51HEJlzrnjieWHHLngrxqHmQ7RKx2rtfljQbYYCNqMt7dmHdwqvKUilUVi98T9szXz/a4YLVPLL4wLhXEhxKqjgWt2x6vv0xCiuVZ4gjzrez4Op3WBlOIVS0fWxpGGIABGIABYaASsTps/Uv1tsbEmBQm1pCOCSNxOSFQKKD0phonVofZQNJwXumI+MmVdaryFItV+QpSolPg6lS+hBR4slWQxtbvdOL3MT4UwIo+L5JlmMlhPKobFoaI1ROyQewe07KmtmPCpOLiOA0XDMAADFweA5WI1WFj4PoaPTkfvgIeE0ZuhKnEnaS18S5HBGjuppTPh97JeNr1l5J0rGdMzE9VnlKxagVkrKwxz2tfncbikWNtWn45pZxITsVRenxI3bb5in+StSYbaEchxljKNr6+tj3Aqes5fnkNEXVOncMADOQYODmxqoIst7UNqQrY3PVyzoYRg00l7iStIYLGVqIb2yuf8Xzx42kX8t372aw5Rc/q9ELNT2i7k3HJzobxb9tbe++yP6RuT8kGKpxjXu2UnfrKlwrHcRovGIABGIABYeDkxGqpN2wnL9ykwwCGe5dFXMfEwqmI1dlaXAuAfUJGxZEdz7lTnZohB9qRidlyXw/IKsXqjjboqzNrO62/Q9rYpsc+DRsMwAAMnB8DpyVWC2cVC7BjXltKONcgVyZWteEPV0jQG/NUxKr9GpYXnulXxFomK3aG1KmsD6urRah9YiJLhi3EPOsaZtftELF6ajYYUia129iOhYZne36NDnVKncIADJQycFJiVZ93CdYAAAPjSURBVAqXE5FOzMlyU7Pu2L99h4mJHmv4VGNuRdqQ6+01sl8iVuVaXQZKwuZssM/y9I1ZdbYxn+qMiVFb7lh8/XaQpcy2BXCsnJu43ravd3mTWfrGE2nzNmQ/xYINW7MNbD7tfo6nMdfZMOzTkMEADMAADFgGTk6sbgSEWWdVCiSeNPnAQDj21J2TGeUiOgrC5BrjmOixRm3Fh12f9Tn66t7nXdZuHTYMQD2BT2btVxFc7iMJ64lWYgPxaFlbTFWemLhU22zG2gYeay/ofrqPMMjYW19num5s3C5q41id3iU4SNWbjUvTd3lYT9gTz6sdhqDlGbIdIlZdWuu3Bk+PLTO+Xtt1iMP0bL6tF9l/dSx+L5TaIExT//u043WzucatcrDdCdDzqS3rrNJIpdjgOGzAwGUycBSxqo2siIDwN8SLtRFn669KOTGR+XKRwD00TJg3+9nU7XPpxlpEiv0Sl4hLe5OFcVk79Nkg/HqVm2i1XoJJPmLg7eEnDoXpHKM8tmyyb0W02sQJrHXeXf7f5Itb7Ycf9Dq7dXX62P3qlfuCVbAc1bYN2nrrPaee1duut97mI9yXjkJYZvs/Vn6Jo0YbhGWz/90rfuMl75yLLDlmz+f2EauX2RjlmOAcTMDAZTNwFLEKdJcNHfV/PvUvnnTxBod16r78FnQawmty/2ezd823Pz403wqXc8vFybnz4Y66pC5h4LIYQKz+clkVzg1Ofe+bARGs1lssn7zd9WMLs5v3zV9/vG+Wwfjzfeed+LgfYAAGYKB+BhCriNUtrxg3bv037rnX0fLjh+bH77/CJs8nGIABGICB46+zeu6NLuVD+MEADMAADMAADMDAeAbwrNJjodcKAzAAAzAAAzAAA9UygFgFzmrhpBc6vheK7bAdDMAADMDAuTCAWEWsIlZhAAZgAAZgAAZgoFoGEKvAWS2c59IjpBx4N2AABmAABmBgPAOIVcQqYhUGYAAGYAAGYAAGqmUAsQqc1cJJL3R8LxTbYTsYgAEYgIFzYQCxilhFrMIADMAADMAADMBAtQwgVoGzWjjPpUdIOfBuwAAMwAAMwMB4BhCriFXEKgzAAAzAAAzAAAxUywBiFTirhZNe6PheKLbDdjAAAzAAA+fCAGIVsYpYhQEYgAEYgAEYgIFqGUCsAme1cJ5Lj5By4N2AARiAARiAgfEMIFYRq4hVGIABGIABGIABGKiWAcQqcFYLJ73Q8b1QbIftYAAGYAAGzoUBxCpiFbEKAzAAAzAAAzAAA9UygFgFzmrhPJceIeXAuwEDMAADMAAD4xlArCJWEaswAAMwAAMwAAMwUC0D/w+ETnBPes9FMQAAAABJRU5ErkJggg==;" vertex="1" parent="1">
          <mxGeometry x="138" y="179" width="379" height="75.47" as="geometry" />
        </mxCell>
      </root>
    </mxGraphModel>
  </diagram>
</mxfile>
